<svg xmlns="http://www.w3.org/2000/svg" width="32" height="32" fill="none" viewBox="0 0 32 32">
  <path fill="#fff" d="M21.849 26.565c.27-1.238.068-2.39.068-2.39-.792 1.138-1.57 2.005-2.29 2.666-1.94.101-3.451-.148-3.451-.148s.864.865 1.862 1.363c-1.317.816-2.198.886-2.198.886 5.763.123 9.224-3.64 9.224-3.64-.973.642-2.1 1.033-3.215 1.263Zm-5.675.128s-1.172-.466-2.85-1.413c.058-1.01.215-2.293.534-3.924 0 0-1.335 1.32-3.063 2.344a28.877 28.877 0 0 1-3.08-2.445s.498 1.54 1.459 3.236c-.913.34-1.851.499-2.712.29 0 0 1.014 1.266 4.144 1.805.868 1.026 1.925 1.877 3.16 2.174 0 0-.371-.41-.455-1.938.856.012 1.806-.024 2.863-.129ZM9.26 15.246c-1.397.043-2.492.167-3.348.322a23.038 23.038 0 0 1-.277-2.572 11.266 11.266 0 0 0-1.414 3.016c-.974.36-1.22.711-1.22.711.152.518.456 1.024.838 1.497-.12 2.241.606 3.721.606 3.721.163-.786.488-1.55.898-2.266a16.812 16.812 0 0 0 2.372 1.578c-.558-.996-.965-2.112-1.268-3.194a18.33 18.33 0 0 1 2.813-2.813ZM6.031 9.844a22.95 22.95 0 0 1 2.456-2.052s-.904 0-1.861.243c.633-1.533 1.334-2.38 1.334-2.38S3.932 8.52 3.168 13.668c0 0 .337-.93 1.486-2.336.455 1.022.98 1.664.98 1.664.008-1.174.166-2.231.397-3.152Zm13.4-4.234a16.194 16.194 0 0 0-3.038-1.17c1.209-1.021 2.334-1.281 2.334-1.281a12.484 12.484 0 0 0-5.01.813c-2.087-.168-3.417.196-3.417.196.314.235.577.655.846 1.16-1.762 1.206-2.659 2.464-2.659 2.464A18.284 18.284 0 0 1 11.79 6.56c.12.224.25.446.39.663a12.533 12.533 0 0 0 1.545 1.947c.288-1.375.786-2.445 1.356-3.275 2.481-.344 4.35-.284 4.35-.284Zm8.892 5.99a9.297 9.297 0 0 0-2.644-3.445c-.884-1.854-1.902-2.711-1.902-2.711.086.426.02.911-.138 1.41-2.2-1.093-4.207-1.242-4.207-1.242 1.28.837 2.414 1.876 3.388 2.947-.897 1.461-2.079 2.694-2.079 2.694 1.564-.353 2.824-.502 3.833-.528 1.544 2.13 2.377 3.917 2.377 3.917a15.778 15.778 0 0 0-.353-3.779c1.309.25 1.725.737 1.725.737ZM29 16.943c-.385.602-.971 1.03-1.66 1.331a33.385 33.385 0 0 0-.389-3.635 43.99 43.99 0 0 1-1.808 4.203c-2.07.266-4.1-.038-4.1-.038 1.115 1.334 1.978 2.126 2.679 2.662-1.046 1.765-1.805 2.708-1.805 2.708 1.464-.335 2.629-.89 3.554-1.552.38.262.704.552 1.027 1.043 0 0 .597-.846.803-2.81C28.78 18.925 29 16.944 29 16.944Zm-12.884.715a62.056 62.056 0 0 0-2.257 3.698s-.551-1.893-.756-4.617a42.613 42.613 0 0 1-3.844-1.493s1.461-.74 3.795-1.645c.067-1.416.263-2.925.672-4.432 0 0 .767 1.414 2.165 3.42a50.547 50.547 0 0 1 4.852-1.338s-1.29 1.602-2.929 3.92a43.137 43.137 0 0 0 3.231 3.634c-.003 0-2.106-.367-4.93-1.147Z"/>
</svg>
