<svg width="32" height="32" viewBox="0 0 32 32" fill="none" xmlns="http://www.w3.org/2000/svg">
<path d="M5.80088 16.5159C5.80088 13.1384 7.45299 10.1406 9.99111 8.28202L9.31828 5.99704C5.84085 8.20874 3.53589 12.0925 3.53589 16.5159C3.53589 21.1991 6.12064 25.2761 9.93782 27.4079L10.7172 25.2361C7.77275 23.4441 5.80088 20.2065 5.80088 16.5159ZM22.6817 5.99704L22.0089 8.28868C24.547 10.1473 26.1991 13.1451 26.1991 16.5226C26.1991 20.2132 24.2272 23.4508 21.2828 25.2428L22.0622 27.4145C25.8794 25.2828 28.4641 21.2058 28.4641 16.5226C28.4641 12.0925 26.1591 8.20874 22.6817 5.99704Z" fill="#00BE14"/>
<path d="M26.6485 28L26.3539 28.7992L26.0592 28H25.8782V29H26.0482V28.4003L26.2699 29H26.4378L26.6595 28.4003V29H26.8296V28H26.6485ZM25 28.1584H25.2972V29H25.465V28.1584H25.7623V28.0006H25V28.1584Z" fill="white"/>
<path d="M11.2834 29L12.1361 26.6617H19.8704L20.7231 29H11.2834Z" fill="white"/>
<path d="M13.2087 13.2184C13.2087 13.2184 14.0614 16.3094 14.4811 18.9541C14.7542 18.9541 15.2272 18.9674 15.2272 18.9674C15.2272 18.9674 13.7549 9.82754 10.1509 3.25907C10.5506 3.06588 11.3567 2.6795 12.6224 2.37972C12.7956 3.23242 15.98 18.9674 15.98 18.9674H16.7261L13.3419 2.2265C13.3419 2.2265 14.3945 2.00666 15.7268 2C15.6735 3.90526 15.8401 12.299 17.4788 18.9608H18.2316C18.2316 18.9608 16.3797 12.2258 16.4529 2C17.1857 2.01332 18.3049 2.13323 18.8445 2.25315C18.8418 2.26647 18.8371 2.28849 18.8306 2.31898C18.6117 3.34081 16.3543 13.8791 19.524 25.5292H12.4825C12.4825 25.5292 14.3278 20.0666 13.2087 13.2184Z" fill="white"/>
<path d="M21.8055 3.35928C21.3874 4.3005 19.0174 9.6351 18.5181 15.5633C18.516 15.5111 18.513 15.4454 18.5094 15.3667C18.4451 13.9475 18.1898 8.31942 19.4774 2.38638C19.5082 2.39495 19.5442 2.40474 19.5848 2.41579C20.018 2.53367 20.9786 2.79504 21.8556 3.24574C21.845 3.27035 21.8281 3.30839 21.8055 3.35928Z" fill="white"/>
</svg>
