<svg width="32" height="32" viewBox="0 0 32 32" fill="none" xmlns="http://www.w3.org/2000/svg">
<g clip-path="url(#clip0_6027_4392)">
<path d="M12.0662 26.496H19.9444L17.7984 19.8256L22.0862 4.12312L18.9704 2.15869L15.5815 21.4817L11.2616 4.18504L10.6241 6.26206L14.1756 20.0513L12.0662 26.496ZM11.6955 27.6288L10.9311 29.9641H21.0602L20.3088 27.6288H11.6955ZM17.6912 2L12.313 3.49273L15.4337 16.5519L17.6912 2Z" fill="white"/>
<path d="M5.79162 21.5932V13.2612L9.95099 9.15466L9.21484 6.68181L3.5 12.324V22.5304L9.75172 28.7024L10.6053 26.3456L5.79162 21.5932Z" fill="#FF6900"/>
<path d="M26.1706 21.5932V13.2612L22.0112 9.15466L22.7474 6.68181L28.4622 12.324V22.5304L22.2105 28.7024L21.3569 26.3456L26.1706 21.5932Z" fill="#FF6900"/>
<path d="M26.9081 28.9674L26.6002 29.764L26.2924 28.9674H26.1034V29.9641H26.281V29.3663L26.5126 29.9641H26.688L26.9195 29.3663V29.9641H27.0971V28.9674H26.9081ZM25.1899 29.1247H25.5007V29.9641H25.676V29.1247H25.9868V28.9674H25.1899V29.1247Z" fill="white"/>
</g>
<defs>
<clipPath id="clip0_6027_4392">
<rect width="25" height="28" fill="white" transform="translate(3.5 2)"/>
</clipPath>
</defs>
</svg>
